<svg xmlns="http://www.w3.org/2000/svg" viewBox="0 0 1161.96 319.84"><defs><style>.cls-1,.cls-2,.cls-8{fill:#2c3e50;}.cls-2{font-size:195px;font-family:Avenir-Black, Avenir;letter-spacing:-0.01em;}.cls-3{letter-spacing:0.01em;}.cls-4{letter-spacing:0.01em;}.cls-5{letter-spacing:0em;}.cls-6{letter-spacing:0.02em;}.cls-7{letter-spacing:-0.01em;}.cls-8{font-size:48px;font-family:Avenir-Book, Avenir;}.cls-9{letter-spacing:-0.09em;}.cls-10{letter-spacing:0em;}.cls-11{letter-spacing:0.01em;}.cls-12{letter-spacing:0.1em;}.cls-13{letter-spacing:-0.07em;}.cls-14{letter-spacing:0.03em;}.cls-15{letter-spacing:0em;}</style></defs><title>eosdis-full-logo</title><g id="earth"><path class="cls-1" d="M205,271c0,1,0,3.89,0,5.94l1,0c.08,0,0,1.87,0,2.06,0,0-3.26,0-4,0,0,0,0,2.31,0,3,0,0,.35,0,1,0,0,0,0,1.7,0,2a8,8,0,0,0,1,0,9.71,9.71,0,0,0,.93,2.16A5.12,5.12,0,0,1,206,288s0,.77,0,1,.17,0,1,0c0,0,0,.82.07,1.86,0,.16-.78-.08-1,.09s-.06,1-.06,1a5.53,5.53,0,0,1-1,0c-.25,0-.77-.94-1-1-1.33-.29-2.19-1.64-2.95-2.36-1.9-1.82-5.23-4-5.89-6.37-.1-.34-1.24-1.47-1.19-2.36,0-.55.05-.91,0-.91h-1l.06-3c-3.49,0-3.11.08-5.84,0-5.13-.79-8.57-3.16-11.61-7.65a5.06,5.06,0,0,0-4.25-2.25c-4.43.23-4.26-1.05-5.84-3.25-2.54-3.51-7.15-6.12-11-7.33-1.65-.52-4.63-.3-6-.42-2-.17-2,.25-2.54.9-3.5,1.06-4-1-4-3.62,0-1.09,0-5.18,0-5.37,0,0-.86.28-.88,0-.32-2.73-3.66-6.13-7-8.33-.68-.45-1.7-.21-2.13-.87-.12-.92,0-4.76,0-4.76-1.45-.85-5.65-5.6-6.44-6.81-5.78-8.85-5.81-5.72-5.5-11.19,0-.08-.8-.46-1-.14s-.8.2-1,0,0-.84,0-.84c-.46-.24-2.07.11-2-.2.13-1.17-.3-1-1.07-.95,0,.44,0,1.76.06,2.19.6,3.66,2.6,6.91,4.88,10A36.87,36.87,0,0,1,125,234s0,1.31,0,2a18.88,18.88,0,0,0-2-.05c0-.54-.15-2.92-.15-2.92-1.08-.16-.72,0-1.12-.75-.67-1.17-2.69-1.25-3.25-2.43-.41-.87-2.07-.35-2.48-1-.25-.39,0-.37,0-.83s1,0,1-.34c0-1,.11-2.45.05-2.71-.18-.77-1.86-1.27-2.07-2-.27-1-1.9-2.09-1.88-3.23,0-2.25-2.06-3.84-2.68-5.56-.9-2.44-1.36-2.4-1.44-4.94,0-.45-.84,0-.94-.25-.37-.84-1.29-1.42-1.81-2-1.32-1.44-3.61-2.18-4.44-2.83-3.27-2.57-5-2.75-6.75-8-.19-.58-1-.63-1-1.17,0-.39,0-2.81,0-3,0,0-1.86,0-2,0-1.09-.49-1.22-2.17-1.75-2-.34.09-.63-.27-.83-.94a13.17,13.17,0,0,1-.38-3.57c0-.93-1.13.46-1.08-.61.22-4.59,0-9.38.1-14.17,0-.64-.31-2.92.27-2.75s.52-2.09.63-2.75c.06-.41,1-.6,1.12-1s-.64-.21-1-.23c-.25,0,.13-2-.13-2a2,2,0,0,1-.85,0c-.26-.05,0-1.47-.07-4,0,0,1.4,0,1.88,0,.49.18.73-.11,1.07,0,.16.06-.14,1.06.14,1,1.23-.08.88-.31,1,2,.84,0,1,.21,1-1,0-.16,1,.21,1-.12,0-1.73,0-3.23,0-3.81,0-.32.14-.2,0-.32-6.33-4.93-8.57-7.68-12.81-8.79-.35-.09-.09-.86-.2-2.08C66,169.52,58.27,198,59.67,226.71A138.7,138.7,0,0,0,87.43,303.9l-7.89,8.34c-29.62-28.09-51.47-82.77-37.6-138.8A150.33,150.33,0,0,1,168.24,60C199,55.88,228.34,61.11,256,75a135,135,0,0,1,37.29,27.07c-2.54,3-5.11,6.27-7,8.54C275,102,264.89,97.09,253.56,91.72s-23.86-8.41-36.47-10.07c-11.35-1.48-20.18-2.25-31.67-.91-.68.08-1.36.23-2.07.26-.56,0-3.62,0-4.31,0,0,0,0,0,0,.07,0,.23,0,1.27,0,1.9,0,0-.92-.07-1,.11A8.38,8.38,0,0,0,178,85a35.38,35.38,0,0,1,3.8.12,5.82,5.82,0,0,1,3.1,1.88c.37.4-.06,1.08.06,1.87,0,.28.57.21.86.19s0-1.61.12-1.88a2.76,2.76,0,0,1,3.48-.82l.75,1.41,1,2,1.46,2.78,1.32-.8,5.45-3.32a5.56,5.56,0,0,0,.53-2.23L199,86a14.63,14.63,0,0,1,0-3,22.27,22.27,0,0,1,2.83,0c.17,0,.09.91.25.91,1.64,0,3.09,0,4.42,0,.84,0,1.44.42,1.46,1.25s0,3,0,3.87h-1v1s1,0,1,0v1h1v3.84c0,1.83-3.84,1.08-5.91,1.19-.36,0-.72-.51-1-1,0,0,0-.81,0-1h-4c-.2,0,.06,1-.18,1-.88.06-1.53,0-1.86,0,0,0,0,1.26-.07,3a3.93,3.93,0,0,1-1,0c-.3,0-1.41,0-2-.06,0,0,0-.7,0-.94a12.47,12.47,0,0,0-2,0l-1.56,0c-1,0-2.6,0-3.48,0a6.54,6.54,0,0,0,0,1h7a14.09,14.09,0,0,1,0,2.86A7.53,7.53,0,0,1,189,104s-2.06.09-3.08.07a3.74,3.74,0,0,0-2.15.32c-2.07.16-4.87,1-5.77-.42-.66-1.07-3-1-3-1a8.33,8.33,0,0,0,0,1c0,.1.09,0,.19,0,.26.07,1.23,0,1.76.06.12,0-.12.91.09,1a3,3,0,0,0,1,0c.86,0,2.48,0,3.88,0,.15,0,.05.6.06.92,0,.15,1-.09,1,.09a2.59,2.59,0,0,1,0,.92s-.78,0-.92,0,.09,1-.08,1c-1.7,0-4.65,0-5,0a4.49,4.49,0,0,1,.05,1c-.05,1.25-2.29,3.28-2.82,4.39a11.93,11.93,0,0,0-1.16,5.2c0,1.5.37,2.61,1.79,2.6,4,0,3.13,3.21,3.19,5.83,2.35,0,7.56-.06,10,0l0,1c0,.09.87-.08.93,0,.45.9,1,1,2,.94a15.8,15.8,0,0,1,4.2,1.8A9.84,9.84,0,0,1,198,133c.08.08-.1,1,0,1a15.48,15.48,0,0,1,1.93,0c.13,0,.05-1,.05-1,.53,0,1.21,0,2.27,0a7,7,0,0,1,1.71.07c2.27.59,3.55,1.09,4,4,0,.28,0,4.87,0,4.87,1.65,0,.74.36,2.43,1.31,1.91,1.06,1.43,3.47,1.55,4.73,1.95-1,3.6-2.25,5-3,.35-.18,1.56.1,1.93-.09A4.76,4.76,0,0,0,219,143c-.31-.87-1.92-1.78-2.26-2.53-1.41-3.1-.59-5.28,2.25-7.2,5.56-3.76,6.57-6.31-.18-9.68-.56-.29-.43-1.6-1-2.38,4-2.94,3-5.41,1.92-9-1-3.27,0-4.46,3.36-4.33A34.89,34.89,0,0,1,241,113.55c1.27.83,1.92,2.63,2.84,4,.17.24.33.49.5.74.52.77-.75,2.44,1.61,2.37,1,0,1.16,1.74,1.81,2.7,2-1.15,3.21-2.5,6.08-2.44,1.74,0,1.19-2.56,4.08-3.48a34.15,34.15,0,0,0,3.84,4.77c.4.45.8.91,1.18,1.39a5.55,5.55,0,0,1,.87,2.36s.91.05,1.53.12c.89.08.74,1.19.61,1.89,0,.14-2,0-1.92,0,.46.43,3.64,4.24,5,6h.94l.06,1a23.9,23.9,0,0,0,3,0V134a24.73,24.73,0,0,1,3,0,3.52,3.52,0,0,1-.27,1c-.31.33-.63,1.34-1,1.65s-.37.56-.83,1A9.15,9.15,0,0,1,272,139c-2.06,0-3,0-3,0s0,.06,0,.42c0,.08,0,.55,0,.55a7.44,7.44,0,0,0,1.15,0,8.39,8.39,0,0,0,4.34-2.47c.82-.95.92-2.53,1.47-2.53.34,0,.42.06,1,0a22.13,22.13,0,0,1,2.06,4c0,.05,0,1,0,1h2c0-.32,0-1,0-1,.88-1.95,5.23-6.95,8-10.06,1.24,1,2.37,2,3.8,3.22l-13,15.72c-1.39-.79-2.44-1.4-3.43-1.95-10.34-5.84-23.61-3.22-30.46,6.48A12.64,12.64,0,0,0,244,156c-.09.22-.14,1-1,1A14.75,14.75,0,0,0,241,157c0,.17,0,.63,0,1a7.71,7.71,0,0,0,1,0c.07,0,0,.34,0,1,0,0-1-.14-1,.1l0,1.46c.1.11-.12.37,0,.44h1s0,4.18,0,6.07c0,.47,0,2.21,0,2.9,0,.19,1-.05,1,.1,0,.3,0,.58,0,.94s0,.74,0,1,0,.69,0,1c0,0-.55,0-1,0a10,10,0,0,1-1,0s0,.63,0,1a8.71,8.71,0,0,1,0,1,3.54,3.54,0,0,1-1,0s0,2.85,0,4c0,1.68-2.83,1.73-4.67,2.28l-1.3.38a7.33,7.33,0,0,0-1.24.38,6.57,6.57,0,0,0-1.79,1c-.47.34-.93.68-.93,1.1,0,1.36-.08,2-.09,3,0,0-.81,0-.93,0s.08,1-.08,1S226.56,188,226,188l0-.95c-.34,0-1.6,0-2,0,0,0,0,2,0,2h-1c0,.5,0,.73,0,.95s0,2.9,0,4c0,0-2,0-3,0,0-.21,0-1,0-1-1.63,0-2.74,0-3,0v-1H202c0,.17,0,1,0,1-13.91,4.33-20.23,15-20,28-1.26,0-3.69,0-5.15,0L170,221s0,.49,0,1c0,.08.49,0,1,0,0,0,0,.15,0,.46s.08.57,0,.56a4.51,4.51,0,0,0-1,0c0,.43,0,1,0,1-.39,0-2.18,0-3,0a25.12,25.12,0,0,0-2.62,4.33,4.1,4.1,0,0,0-.36,2.41c0,.33.08.26.3.24a4.73,4.73,0,0,1,.69,0c0,1.2-.07,4.34,0,4.95.08,1-.58,1.7-.67,2.4-.84,7,.19,12.43,3,16.37.69,1,1.32,1.57,1.68,1.29,2,1,13.51-13,20-19a16.54,16.54,0,0,1,3,3c0,1,.8.51-3,4-1.33,1.22-14,14-16,15,4,0,7,0,8-1,.82-.82,1.23-2.15,2-3.84.85-1.92,1.21-3.85,3-5.17a4.87,4.87,0,0,1,2.16-.84c2.24-.33,4.92.06,5.83.85.58.5.19,3.86-.76,5.38A22.13,22.13,0,0,0,190,266.24c0,.28,0,1.65,0,1.74,1,0,.32,0,2,0a7.74,7.74,0,0,0,.05-2s1,0,3,0a7.08,7.08,0,0,0,0,1c.16,0,2.09,0,4,0,0,0,0-.61,0-1a6.75,6.75,0,0,1,1,0M170,92c.06-.88,0-2,0-2a7.93,7.93,0,0,1,1-1s3,0,3,0a7.93,7.93,0,0,0,0-1c.2,0,1.75,0,2,0,0,0,0-1.24,0-2h-1V85c-.74,0-2,0-2,0,0-.27,0-1,0-1h-2.12c-2.47,0-3.34,0-4.72,0-2.39,0-.84,0-2.23.23a13.06,13.06,0,0,0-2.12.52c-.68.24-1.12.49-1.68.67-1.32.42-3.63,1-4.9,1.55A41.13,41.13,0,0,1,148,89.08c.39,0,2.78,1.8,3.16,1.8a35.91,35.91,0,0,0,4.69.06c.32,0,0-.92.38-.93,1.13,0,4.58,0,5.8,0v1a11.76,11.76,0,0,1,2,0s-.15-1,.1-1l2.9,0a11.83,11.83,0,0,0,.92,2,7.6,7.6,0,0,1,.06,2c0,.67,0,.36,0,1a2.34,2.34,0,0,0,1-.06A6.92,6.92,0,0,1,169,96c0-.5,1,0,1,0" transform="translate(-37.67 -38.76)"/><path class="cls-1" d="M209.17,242.23c-13.43-.09-22.33-9.86-22.49-24-.12-10,9.46-22.21,23.37-21.61,12.92.56,22.28,9.94,22.17,23.25C232.12,232.87,222.38,242.31,209.17,242.23Z" transform="translate(-37.67 -38.76)"/><path class="cls-1" d="M264.76,146.75c10.16.07,17.46,7.48,17.45,17.75s-7.57,17.82-18,17.71c-10.12-.1-17.44-7.6-17.42-17.82C246.78,153.93,254.17,146.68,264.76,146.75Z" transform="translate(-37.67 -38.76)"/><path class="cls-1" d="M148.91,259.78c10.19,0,17.37,7.44,17.3,17.92-.06,10.17-7.58,17.55-17.82,17.51s-17.6-7.45-17.6-17.71C130.79,267.08,138.26,259.77,148.91,259.78Z" transform="translate(-37.67 -38.76)"/><path class="cls-1" d="M108.2,320.72c-.09,7.65-5.4,12.68-13.16,12.48-7.38-.19-12.32-5.41-12.24-12.92S88.18,307.6,96,307.8C103.34,308,108.3,313.22,108.2,320.72Z" transform="translate(-37.67 -38.76)"/><path class="cls-1" d="M302.71,130.21c-7.72,0-12.91-5.07-12.92-12.76,0-7.48,5-12.55,12.49-12.65,7.69-.11,13,5.08,12.93,12.75C315.19,125,310.13,130.16,302.71,130.21Z" transform="translate(-37.67 -38.76)"/><path class="cls-1" d="M105.88,334.74l5.21-6.33c20.21,16.1,43,25.84,68.15,30.19A145.11,145.11,0,0,1,105.88,334.74Z" transform="translate(-37.67 -38.76)"/><path class="cls-1" d="M315.45,129.53a144.79,144.79,0,0,1,22.15,70.69,147.53,147.53,0,0,0-28.79-66.36C311.13,132.34,313,131.13,315.45,129.53Z" transform="translate(-37.67 -38.76)"/><path class="cls-1" d="M60.37,352.17c-4.74-.06-7.75-3.21-7.57-7.89s3.36-7.63,8.07-7.45c4.5.18,7.4,3.21,7.33,7.65C68.14,349.22,65.06,352.24,60.37,352.17Z" transform="translate(-37.67 -38.76)"/><path class="cls-1" d="M325.65,72.78c4.63,0,7.65,3.25,7.52,8s-3.28,7.55-8.08,7.42c-4.45-.12-7.28-3.12-7.27-7.7S321,72.73,325.65,72.78Z" transform="translate(-37.67 -38.76)"/><path class="cls-1" d="M131.06,290.57l3.14,3.92L112.53,313c-3.89-3-4.09-3.42-1.27-5.87C117.4,301.82,123.72,296.7,131.06,290.57Z" transform="translate(-37.67 -38.76)"/><path class="cls-1" d="M230.7,202.16l-3.46-3.63,19-20.46L250,181.4Z" transform="translate(-37.67 -38.76)"/><path class="cls-1" d="M317.81,87.74l5.09,3c-2.94,4.59-5.74,8.94-8.77,13.66l-4.66-3C312.28,96.81,314.89,92.52,317.81,87.74Z" transform="translate(-37.67 -38.76)"/><path class="cls-1" d="M70.89,343.67l-2.19-6.22L81,330.05l3.45,4.17Z" transform="translate(-37.67 -38.76)"/><path class="cls-1" d="M53,352c-4.15,1-8.89-1.9-7.67-6.85,1.12-4.55,3.18-8.87,4.83-13.29.32.1,4.52-7,4.84-6.86C48,338,50,345,53,352Z" transform="translate(-37.67 -38.76)"/><path class="cls-1" d="M331,71c-11,0-17-1-26,4,4.6-3.39,14.72-9.16,20.57-9.07C330,66,330.47,67.28,331,71Z" transform="translate(-37.67 -38.76)"/></g><g id="text"><text class="cls-2" transform="translate(340.33 166.53)">E<tspan class="cls-3" x="120.12" y="0">O</tspan><tspan class="cls-4" x="284.5" y="0">S</tspan><tspan class="cls-5" x="397.6" y="0">D</tspan><tspan class="cls-6" x="546.38" y="0">I</tspan><tspan class="cls-7" x="607.41" y="0">S</tspan></text><text class="cls-8" transform="translate(349.33 242.24)">NAS<tspan class="cls-9" x="96.96" y="0">A</tspan><tspan class="cls-10" x="125.76" y="0">’S EA</tspan><tspan class="cls-11" x="239.66" y="0">R</tspan><tspan class="cls-10" x="268.41" y="0">TH OBS</tspan><tspan class="cls-12" x="440.92" y="0">E</tspan><tspan class="cls-11" x="474.19" y="0">R</tspan><tspan x="502.94" y="0">VING SYSTEM</tspan><tspan x="0" y="57.6">D</tspan><tspan class="cls-13" x="35.57" y="57.6">AT</tspan><tspan x="89.52" y="57.6">A &amp; INFORM</tspan><tspan class="cls-14" x="370.85" y="57.6">A</tspan><tspan class="cls-15" x="405.31" y="57.6">TION SYSTEM</tspan></text></g></svg>